<svg height="512pt" viewBox="0 -23 512 512" width="512pt" xmlns="http://www.w3.org/2000/svg" xmlns:xlink="http://www.w3.org/1999/xlink"><linearGradient id="a" gradientUnits="userSpaceOnUse" x1="0" x2="512" y1="233" y2="233"><stop offset="0" stop-color="#00f2fe"/><stop offset=".0208" stop-color="#03effe"/><stop offset=".2931" stop-color="#24d2fe"/><stop offset=".5538" stop-color="#3cbdfe"/><stop offset=".7956" stop-color="#4ab0fe"/><stop offset="1" stop-color="#4facfe"/></linearGradient><path d="m512 371c0 11.046875-8.953125 20-20 20h-55v55c0 11.046875-8.953125 20-20 20s-20-8.953125-20-20v-55h-55c-11.046875 0-20-8.953125-20-20s8.953125-20 20-20h55v-55c0-11.046875 8.953125-20 20-20s20 8.953125 20 20v55h55c11.046875 0 20 8.953125 20 20zm0-291v211c0 11.046875-8.953125 20-20 20s-20-8.953125-20-20v-205.363281l-173.753906 108.042969c-13.027344 8.101562-27.640625 12.152343-42.246094 12.152343-14.609375 0-29.214844-4.050781-42.246094-12.152343l-173.753906-108.042969v225.363281c0 22.054688 17.945312 40 40 40h182c11.046875 0 20 8.953125 20 20s-8.953125 20-20 20h-182c-44.113281 0-80-35.886719-80-80v-231c0-44.113281 35.886719-80 80-80h352c44.113281 0 80 35.886719 80 80zm-55.671875-31.722656c-6.746094-5.183594-15.179687-8.277344-24.328125-8.277344h-352c-9.148438 0-17.582031 3.09375-24.324219 8.277344l179.203125 111.433594c13.027344 8.101562 29.214844 8.101562 42.242188 0zm0 0" fill="url(#a)"/></svg>